<?xml version="1.0" standalone="no"?>
<!DOCTYPE svg PUBLIC "-//W3C//DTD SVG 20010904//EN"
 "http://www.w3.org/TR/2001/REC-SVG-20010904/DTD/svg10.dtd">
<svg version="1.0" xmlns="http://www.w3.org/2000/svg"
 width="320.000000pt" height="320.000000pt" viewBox="0 0 320.000000 320.000000"
 preserveAspectRatio="xMidYMid meet">
<metadata>
Created by potrace 1.14, written by Peter Selinger 2001-2017
</metadata>
<g transform="translate(0.000000,320.000000) scale(0.100000,-0.100000)"
fill="#000000" stroke="none">
<path d="M725 3026 c-148 -34 -274 -94 -386 -184 -365 -292 -446 -821 -185
-1210 31 -46 268 -290 745 -767 l701 -700 701 700 c473 473 714 721 744 766
98 146 143 285 152 469 19 417 -250 787 -662 911 -101 30 -312 37 -426 14
-158 -31 -295 -105 -440 -234 l-70 -63 -52 49 c-114 107 -227 177 -367 224
-88 30 -107 33 -245 35 -103 3 -169 -1 -210 -10z m89 -596 c72 -36 80 -56 87
-220 3 -88 10 -155 18 -170 8 -14 134 -146 281 -295 147 -148 273 -280 279
-292 31 -60 -3 -155 -69 -192 -44 -24 -87 -27 -133 -7 -38 16 -584 564 -616
617 -50 85 -61 142 -61 312 0 146 2 163 22 195 22 36 85 71 127 72 14 0 43 -9
65 -20z"/>
</g>
</svg>
